<svg fill="none" height="200" viewBox="0 0 200 200" width="200" xmlns="http://www.w3.org/2000/svg"><path d="m191.557 168.76c-10.369 9.538-14.69.797-81.389 8.441-.532.067-1.097.133-1.662.2-2.027.232-4.021.465-6.048.664-17.2481 1.728-34.6624 2.327-51.7775 4.985-20.1727 3.157-28.481 5.716-35.9917.665-9.23889-6.215-9.13919-18.611-10.10296-48.188-2.16016-67.7964-4.984997-78.0323 4.71913-86.4071.83083-.6979 1.62843-1.2961 2.72513-1.8278-8.64066 8.2751-5.91552 19.9732-3.82183 85.6089.93054 29.578.86407 41.974 10.10293 48.188 7.4775 5.052 15.8191 2.493 35.9917-.664 17.1152-2.659 34.5294-3.29 51.7771-4.985v-20.937c0-14.291-2.691-41.542-5.051-75.7722-1.2297-18.0125-1.9276-30.9402-2.2931-39.1821.3988-.0332.7976-.0332 1.1631-.0664 13.36-.7312 20.372-.997 20.372-.997 16.484-1.3294 64.905-4.6527 66.899 0 1.994 4.6526 9.438 125.6217 4.387 130.2747z" fill="#02b795"/><path d="m101.029 78.7309c-1.2297-18.0125-1.9276-30.9403-2.2932-39.1821-.0332-.8641-.0664-1.6617-.0997-2.4261-10.7676.6315-24.8253 1.4955-42.0069 2.7252-36.8225 2.5922-39.9464 3.423-43.7018 6.6466-.2991.2659-.5982.5318-.8973.7976-8.64068 8.2751-5.91555 19.9733-3.82185 85.6089.93054 29.578.86407 41.974 10.10295 48.189 7.4775 5.051 15.819 2.492 35.9917-.665 17.1151-2.659 34.5294-3.29 51.7771-4.985v-20.937c0-14.29-2.692-41.542-5.051-75.7721z" fill="#2e1544"/><path d="m195.179 166.135c-10.368 9.538-14.689.797-81.388 8.441-1.063-18.046-3.157-51.445-4.353-61.947-1.363-11.731-4.653-58.0253-5.916-75.7719 13.36-.7312 20.372-.997 20.372-.997 16.484-1.3294 64.905-4.6527 66.899 0 1.994 4.6526 9.438 125.6219 4.386 130.2749z" fill="#2e1544"/><path d="m113.79 174.576c-.531.066-1.096.133-1.661.199-2.027.233-4.021.466-6.049.665v-20.937c0-14.29-2.692-41.542-5.051-75.772-1.3627-19.8736-2.0606-33.5989-2.3929-41.6082 1.7279-.0997 3.3569-.1994 4.8849-.2658 1.263 17.7466 4.553 64.007 5.916 75.772 1.23 10.502 3.29 43.901 4.353 61.947z" fill="#ffd110"/><path d="m189.363 104.687c-.93-12.2636-1.761-13.46-2.459-14.2576-3.922-4.3868-14.324-3.4895-35.095-1.7281-5.184.432-9.438.9305-17.779 1.8943-6.813.7976-10.236 1.1964-10.801 1.4955-9.006 4.8188-3.257 21.0039-3.224 55.6659 0 2.825-.033 9.039 4.088 12.363 3.656 2.924 8.773 2.16 10.9 1.894 30.01-4.121 47.557 3.257 54.337-7.544.598-.964.698-7.278.831-19.84.066-8.441.133-17.813-.798-29.943zm-3.556 28.813c-.133 11.067-.199 16.583-.731 17.447-5.949 9.472-21.402 2.991-47.823 6.614-1.861.266-6.381.93-9.571-1.662-3.622-2.924-3.589-8.375-3.589-10.867-.033-30.475-5.085-44.699 2.825-48.9529.498-.2659 3.522-.6314 9.504-1.3293 7.345-.8641 11.1-1.2961 15.653-1.6617 18.279-1.562 27.418-2.3263 30.874 1.4955.598.6647 1.363 1.7281 2.16 12.5294.831 10.667.798 18.909.698 26.387z" fill="#ffd110"/><path d="m68.4275 132.735c-.997-.066-.8973-3.223-3.4895-7.909-.5318-.964-2.559-4.587-3.9216-4.354-.2991.067-.5649.332-.7976.964-.997 2.559-9.0726 20.97-.8308 30.176 1.7614 1.994 3.7221 2.758 6.3808 3.988 2.5257 1.163 9.8038 4.486 17.7134 1.927.8973-.299 3.423-1.163 5.849-3.09 10.5018-8.475 7.4775-29.013 4.2539-29.645-2.3928-.432-5.6164 9.871-8.2751 9.173-1.1632-.299-.9638-2.426-2.991-7.079-1.5287-3.456-2.7584-6.314-4.6194-6.447-1.994-.166-3.8551 2.825-5.4503 5.384-2.4925 4.087-2.8581 6.979-3.8218 6.912z" fill="#dcb8fd"/><path d="m149.583 53.0083s2.227-7.976-4.287-8.3083c-6.514-.3324-8.076 5.9487-6.68 9.3385 1.363 3.3898 4.287 4.7524 4.287 4.7524s-3.257-2.8913-8.574 2.7251c-5.317 5.5832-3.955 9.3386 0 10.5018 3.955 1.1964 8.076-1.6949 10.801-5.7494 0 0-2.925 4.7524 1.728 9.1392s13.393 1.861 11.997-8.8069c0 0 5.151 3.8883 11.133-.3323 6.016-4.2539-1.03-11.532-12.163-8.8068 4.221-.997 6.879-4.2207 6.647-7.2449-.133-1.9275-1.463-3.8551-3.191-4.553-3.19-1.2961-8.308 1.3626-11.698 7.3446z" fill="#dcb8fd"/><path d="m82.252 83.3505c-.2991 1.8278-.8973 5.5499-3.3233 9.6709-.8641 1.4955-3.4895 5.5832-8.6074 8.8396-6.6135 4.221-13.1604 4.288-15.52 4.254-2.7583 0-8.6739-.099-14.5894-3.855-4.42-2.8246-6.7464-6.3806-8.0092-8.3413-1.4291-2.2599-3.7222-5.9488-4.2207-11.1997-.5317-5.7826 1.3958-10.1694 2.4593-12.5289 1.0635-2.3596 3.8218-8.2087 10.2359-12.097 6.5137-3.9547 12.9942-3.5892 18.4777-3.2901 5.3838.2991 10.1029.565 14.6226 3.8883 5.0515 3.7554 6.7796 9.0727 7.6105 11.7314.3323 1.0302 1.9275 6.2146.864 12.9278z" fill="#ffd110"/><g fill="#02b795"><path d="m46.8916 135.194c-.1662 3.689-2.7916 6.115-3.3898 6.647-.565.498-3.1572 2.792-6.8793 2.526-4.3203-.299-6.7464-3.789-7.3446-4.587-.4985-.731-1.429-2.259-1.7946-4.42-.1661-1.03-.7643-4.685 1.5952-7.577 3.0243-3.722 8.3416-2.991 8.7072-2.924 4.9517.731 9.3385 5.383 9.1059 10.335z"/><path d="m34.0309 154.935c-.8973 3.124-6.2479 4.254-9.9036 3.323-.9305-.232-2.7583-.698-3.7553-2.359-1.4291-2.393.0997-5.251.2991-5.617.1661-.299 1.7613-3.157 5.0514-3.556 3.6225-.432 6.0153 2.493 6.5138 3.124.6314.798 2.426 2.958 1.7946 5.085z"/><path d="m133.033 102.825s11.2-2.8912 15.055 2.36c3.855 5.251 1.495 7.677 2.326 14.589.831 6.913 4.686 1.396 12.762 0 8.075-1.396 15.786 2.559 11.93 7.345-3.855 4.785-12.961 12.063-7.344 13.459 5.616 1.396 9.804-1.429 9.804-1.429v5.218s-16.484 8.308-18.212 0c-1.728-8.309 10.502-16.152 8.773-19.342-1.761-3.19-15.42 8.042-21.734 2.06s3.157-17.547.365-19.541c-2.791-1.994-13.658 0-13.658 0v-4.719z"/></g><path d="m37.1214 83.3504s1.0302 7.3446 11.8975 9.538 21.1032-.5982 24.925-7.544l-5.6164-1.1964s1.7946 2.3263-3.0242 4.3203c-4.8189 2.0273-13.0607 3.0243-16.2844 1.2297-3.2236-1.7946-8.0424-7.544-8.0424-7.544z" fill="#2e1544"/><path d="m46.7919 69.8247c.2326.6979.4653 1.2961.2991 1.9608-.3323 1.2628-1.8611 2.2931-3.3898 2.1934-1.7281-.0997-3.1572-1.5952-3.2236-3.1904-.0997-2.3596 2.858-4.0877 4.4865-3.5228 1.0634.4321 1.5619 1.8611 1.8278 2.559z" fill="#2e1544"/><path d="m70.5205 70.4889c.0997 1.429-.8973 2.7584-2.2266 3.1572-1.0303.3323-2.2267.0664-3.0243-.6315-.8973-.7976-.997-1.861-1.0302-2.1934-.0332-.3323-.1662-1.861.9305-2.7251.8641-.6979 1.9608-.5317 2.2931-.4653 1.1632.1662 2.9246 1.0967 3.0575 2.8581z" fill="#2e1544"/></svg>